<svg width="24" height="24" xmlns="http://www.w3.org/2000/svg">
    <path fill="#FFF" d="M22.225 0H1.77C.79 0 0 .791 0 1.77v20.46C0 23.21.792 24 1.77 24h20.456c.978 0 1.77-.791 1.77-1.77V1.77C24 .792 23.203 0 22.225 0zM7.077 20.447H3.69V9H7.08v11.447zM5.384 7.498c-1.09 0-1.974-.888-1.974-1.985 0-1.097.887-1.985 1.974-1.985 1.09 0 1.978.889 1.978 1.985 0 1.09-.888 1.986-1.978 1.986zM20.45 20.447h-3.388v-5.57c0-1.328-.027-3.037-1.852-3.037-1.854 0-2.14 1.447-2.14 2.937v5.67H9.683V9h3.26v1.562h.045c.455-.86 1.57-1.76 3.234-1.76 3.457 0 4.093 2.27 4.093 5.216v6.43z"/>
</svg>
